<?xml version="1.0" standalone="no"?>
<!DOCTYPE svg PUBLIC "-//W3C//DTD SVG 20010904//EN"
 "http://www.w3.org/TR/2001/REC-SVG-20010904/DTD/svg10.dtd">
<svg version="1.0" xmlns="http://www.w3.org/2000/svg"
 width="1131.000000pt" height="1131.000000pt" viewBox="0 0 1131.000000 1131.000000"
 preserveAspectRatio="xMidYMid meet">
<metadata>
Created by potrace 1.14, written by Peter Selinger 2001-2017
</metadata>
<g transform="translate(0.000000,1131.000000) scale(0.100000,-0.100000)"
fill="#000000" stroke="none">
<path d="M1450 11290 c-58 -8 -109 -16 -150 -25 -14 -3 -38 -8 -54 -10 -16 -3
-37 -10 -47 -16 -11 -5 -19 -7 -19 -4 0 3 -24 -4 -52 -16 -29 -11 -60 -22 -68
-24 -8 -2 -16 -4 -17 -5 -2 -2 -6 -3 -10 -4 -5 -1 -35 -15 -68 -31 -33 -16
-63 -28 -67 -27 -5 1 -8 -2 -8 -8 0 -5 -4 -10 -9 -10 -12 0 -114 -62 -123 -75
-4 -5 -8 -6 -8 -2 0 4 -10 -1 -22 -13 -12 -11 -25 -20 -28 -20 -4 0 -18 -9
-31 -21 -13 -11 -39 -33 -58 -47 -40 -32 -201 -189 -201 -197 0 -3 -8 -14 -17
-24 -50 -54 -63 -69 -63 -76 0 -3 -6 -13 -12 -20 -25 -28 -33 -39 -70 -107 -7
-13 -16 -25 -19 -28 -10 -9 -33 -55 -31 -62 1 -5 -3 -8 -8 -8 -5 0 -9 -3 -8
-7 0 -5 -10 -30 -22 -58 -13 -27 -23 -53 -22 -57 1 -5 -2 -8 -8 -8 -6 0 -9 -3
-9 -7 1 -5 0 -11 -1 -15 -1 -5 -3 -11 -5 -15 -1 -5 -4 -15 -7 -23 -14 -37 -37
-118 -43 -150 -3 -19 -8 -43 -11 -52 -9 -32 -18 -87 -29 -183 -6 -51 -6 -8307
-1 -8356 16 -131 19 -150 42 -243 8 -34 17 -72 20 -85 3 -13 12 -37 20 -52 8
-16 15 -32 15 -36 1 -5 5 -18 10 -30 5 -13 13 -33 18 -45 5 -13 8 -25 8 -28
-1 -5 35 -72 43 -80 3 -3 16 -27 30 -54 13 -27 29 -54 35 -60 6 -6 21 -28 34
-49 13 -21 30 -44 38 -52 8 -8 12 -15 8 -15 -3 0 6 -11 21 -25 15 -14 24 -25
20 -25 -3 0 13 -19 37 -42 23 -24 53 -56 66 -73 12 -16 26 -30 29 -30 4 0 6
-3 4 -7 -1 -5 3 -8 8 -8 11 0 18 -6 92 -75 21 -19 38 -31 38 -27 0 4 7 -2 15
-12 8 -11 15 -16 15 -10 0 5 4 4 8 -2 11 -16 124 -90 150 -98 12 -4 22 -12 22
-17 0 -6 4 -8 9 -4 5 3 13 0 17 -6 7 -12 74 -44 87 -41 4 1 7 -3 7 -10 0 -6 3
-8 6 -5 4 3 16 1 28 -5 11 -7 23 -13 26 -14 3 0 14 -4 25 -8 76 -29 95 -35 95
-29 0 4 5 2 12 -5 7 -7 23 -12 36 -12 13 0 31 -4 40 -9 9 -5 37 -12 62 -15 25
-3 65 -9 90 -13 25 -3 55 -6 68 -7 12 0 22 -4 22 -8 0 -4 1874 -8 4165 -8
2291 0 4165 4 4165 8 0 4 10 8 23 9 26 0 134 14 160 19 9 2 27 6 40 10 12 3
33 7 47 10 14 3 32 7 40 9 8 2 16 4 18 5 1 2 5 3 10 5 4 1 15 5 24 9 9 4 25 9
35 11 10 2 20 4 23 5 3 1 8 2 13 1 4 0 7 4 7 10 0 5 4 8 9 4 5 -3 12 -1 16 5
4 6 11 8 16 5 5 -4 9 -1 9 6 0 7 3 10 6 7 5 -5 64 23 159 75 11 6 22 12 25 12
3 0 15 9 28 20 12 11 26 20 31 20 4 0 15 8 25 18 10 9 21 17 26 17 5 0 18 10
30 22 11 12 20 18 20 14 0 -4 12 6 26 21 14 15 29 28 32 28 4 0 36 29 72 65
36 35 68 63 73 62 4 -1 7 2 7 6 0 9 47 67 83 104 9 10 18 21 19 26 2 8 14 24
40 52 9 10 14 21 11 24 -4 3 -1 6 5 6 7 0 12 7 12 15 0 8 3 15 8 15 4 0 12 9
17 19 35 67 120 237 121 241 0 3 6 19 13 35 7 17 14 37 16 45 2 8 4 15 5 15 1
0 3 7 5 15 2 8 13 50 25 92 11 42 21 88 22 102 1 14 6 26 10 26 10 0 11 8604
1 8614 -4 3 -8 12 -9 19 -3 15 -21 94 -28 125 -2 12 -7 26 -10 30 -3 5 -7 19
-10 33 -2 13 -10 38 -17 54 -6 17 -13 35 -14 41 -2 6 -18 42 -36 80 -19 38
-33 72 -32 76 1 3 -4 12 -12 18 -8 7 -15 19 -15 26 0 8 -5 14 -12 14 -6 0 -9
3 -5 6 3 3 -1 13 -9 22 -8 10 -13 19 -12 22 1 3 -8 16 -20 30 -11 14 -20 28
-19 31 1 3 -5 12 -13 21 -8 8 -26 30 -40 48 -70 92 -274 300 -295 300 -5 0
-37 25 -61 48 -8 7 -14 10 -14 7 0 -4 -13 5 -30 18 -16 14 -39 28 -50 32 -11
3 -20 11 -20 16 0 5 -6 9 -14 9 -7 0 -26 10 -42 23 -16 12 -31 22 -34 21 -13
-2 -40 9 -40 17 0 5 -3 8 -7 7 -5 -1 -19 4 -33 9 -58 25 -85 36 -92 38 -5 2
-10 4 -13 5 -3 1 -9 4 -15 5 -5 1 -11 3 -12 5 -2 1 -10 3 -18 5 -8 2 -33 9
-55 15 -72 19 -80 21 -100 25 -74 12 -97 16 -155 24 -77 11 -8347 12 -8430 1z"/>
</g>
</svg>
